name analog
datacolumns 19
datarows 50
range 0.54 0.5645
endheader
time	ground_force_vx	ground_force_vy	ground_force_vz	ground_force_px	ground_force_py	ground_force_pz	l_ground_force_vx	l_ground_force_vy	l_ground_force_vz	l_ground_force_px	l_ground_force_py	l_ground_force_pz	ground_torque_x	ground_torque_y	ground_torque_z	l_ground_torque_x	l_ground_torque_y	l_ground_torque_z
0.54	-0.0	-0.0	-0.0	-3.7222166061401367	-2.1114625930786133	-777.3247680664062	-0.0	-0.0	-0.0	-0.0	-0.0	-0.0	-0.0	-0.0	-0.0	-0.0	-0.0	-0.0
0.5405	-0.0	-0.0	-0.0	-2.734846830368042	-2.5876057147979736	-776.4988403320312	-0.0	-0.0	-0.0	-0.0	-0.0	-0.0	-0.0	-0.0	-0.0	-0.0	-0.0	-0.0
0.541	-0.0	-0.0	-0.0	-2.1662933826446533	-2.233649969100952	-777.5809326171875	-0.0	-0.0	-0.0	-0.0	-0.0	-0.0	-0.0	-0.0	-0.0	-0.0	-0.0	-0.0
0.5415	-0.0	-0.0	-0.0	-0.1552356034517288	-2.526179552078247	-776.8944091796875	-0.0	-0.0	-0.0	-0.0	-0.0	-0.0	-0.0	-0.0	-0.0	-0.0	-0.0	-0.0
0.542	-0.0	-0.0	-0.0	2.0022008419036865	-2.673912048339844	-774.7470703125	-0.0	-0.0	-0.0	-0.0	-0.0	-0.0	-0.0	-0.0	-0.0	-0.0	-0.0	-0.0
0.5425	-0.0	-0.0	-0.0	4.406047821044922	-3.4478018283843994	-775.686767578125	-0.0	-0.0	-0.0	-0.0	-0.0	-0.0	-0.0	-0.0	-0.0	-0.0	-0.0	-0.0
0.543	-0.0	-0.0	-0.0	6.662318706512451	-3.71123480796814	-771.8034057617188	-0.0	-0.0	-0.0	-0.0	-0.0	-0.0	-0.0	-0.0	-0.0	-0.0	-0.0	-0.0
0.5435	-0.0	-0.0	-0.0	9.072591781616213	-3.7703332901000977	-766.746826171875	-0.0	-0.0	-0.0	-0.0	-0.0	-0.0	-0.0	-0.0	-0.0	-0.0	-0.0	-0.0
0.544	-0.0	-0.0	-0.0	11.567100524902344	-3.862845659255981	-763.6885375976562	-0.0	-0.0	-0.0	-0.0	-0.0	-0.0	-0.0	-0.0	-0.0	-0.0	-0.0	-0.0
0.5445	-0.0	-0.0	-0.0	13.919530868530272	-2.9687728881835938	-758.505615234375	-0.0	-0.0	-0.0	-0.0	-0.0	-0.0	-0.0	-0.0	-0.0	-0.0	-0.0	-0.0
0.545	-0.0	-0.0	-0.0	16.08803367614746	-2.55466628074646	-754.5020751953125	-0.0	-0.0	-0.0	-0.0	-0.0	-0.0	-0.0	-0.0	-0.0	-0.0	-0.0	-0.0
0.5455	-0.0	-0.0	-0.0	16.594131469726562	-1.4280377626419067	-750.3961181640625	-0.0	-0.0	-0.0	-0.0	-0.0	-0.0	-0.0	-0.0	-0.0	-0.0	-0.0	-0.0
0.546	-0.0	-0.0	-0.0	16.027103424072266	-1.218640923500061	-749.325927734375	-0.0	-0.0	-0.0	-0.0	-0.0	-0.0	-0.0	-0.0	-0.0	-0.0	-0.0	-0.0
0.5465	-0.0	-0.0	-0.0	14.630523681640623	-0.6831132769584656	-748.1537475585938	-0.0	-0.0	-0.0	-0.0	-0.0	-0.0	-0.0	-0.0	-0.0	-0.0	-0.0	-0.0
0.547	-0.0	-0.0	-0.0	12.577423095703123	-0.2968219518661499	-749.093017578125	-0.0	-0.0	-0.0	-0.0	-0.0	-0.0	-0.0	-0.0	-0.0	-0.0	-0.0	-0.0
0.5475	-0.0	-0.0	-0.0	10.0512056350708	-0.623680830001831	-750.9786376953125	-0.0	-0.0	-0.0	-0.0	-0.0	-0.0	-0.0	-0.0	-0.0	-0.0	-0.0	-0.0
0.548	-0.0	-0.0	-0.0	8.118156433105469	-1.1585911512374878	-753.3331909179688	-0.0	-0.0	-0.0	-0.0	-0.0	-0.0	-0.0	-0.0	-0.0	-0.0	-0.0	-0.0
0.5485	-0.0	-0.0	-0.0	6.363773822784424	-2.0799365043640137	-756.2752685546875	-0.0	-0.0	-0.0	-0.0	-0.0	-0.0	-0.0	-0.0	-0.0	-0.0	-0.0	-0.0
0.549	-0.0	-0.0	-0.0	5.531051635742188	-2.792644500732422	-760.2765502929688	-0.0	-0.0	-0.0	-0.0	-0.0	-0.0	-0.0	-0.0	-0.0	-0.0	-0.0	-0.0
0.5495	-0.0	-0.0	-0.0	4.490074157714844	-3.3273468017578125	-764.045166015625	-0.0	-0.0	-0.0	-0.0	-0.0	-0.0	-0.0	-0.0	-0.0	-0.0	-0.0	-0.0
0.55	-0.0	-0.0	-0.0	5.204406261444092	-4.097931385040283	-767.226318359375	-0.0	-0.0	-0.0	-0.0	-0.0	-0.0	-0.0	-0.0	-0.0	-0.0	-0.0	-0.0
0.5505	-0.0	-0.0	-0.0	6.036032676696777	-4.485140323638916	-770.1655883789062	-0.0	-0.0	-0.0	-0.0	-0.0	-0.0	-0.0	-0.0	-0.0	-0.0	-0.0	-0.0
0.551	-0.0	-0.0	-0.0	6.450423240661621	-4.487993240356445	-770.41015625	-0.0	-0.0	-0.0	-0.0	-0.0	-0.0	-0.0	-0.0	-0.0	-0.0	-0.0	-0.0
0.5515	-0.0	-0.0	-0.0	7.640290260314941	-4.81179666519165	-771.703125	-0.0	-0.0	-0.0	-0.0	-0.0	-0.0	-0.0	-0.0	-0.0	-0.0	-0.0	-0.0
0.552	-0.0	-0.0	-0.0	8.415066719055176	-4.544278621673584	-771.6873168945312	-0.0	-0.0	-0.0	-0.0	-0.0	-0.0	-0.0	-0.0	-0.0	-0.0	-0.0	-0.0
0.5525	-0.0	-0.0	-0.0	8.708589553833008	-4.544037818908691	-771.6917724609375	-0.0	-0.0	-0.0	-0.0	-0.0	-0.0	-0.0	-0.0	-0.0	-0.0	-0.0	-0.0
0.553	-0.0	-0.0	-0.0	8.768302917480469	-4.394779682159424	-772.53369140625	-0.0	-0.0	-0.0	-0.0	-0.0	-0.0	-0.0	-0.0	-0.0	-0.0	-0.0	-0.0
0.5535	-0.0	-0.0	-0.0	8.207366943359375	-4.572719573974609	-775.460205078125	-0.0	-0.0	-0.0	-0.0	-0.0	-0.0	-0.0	-0.0	-0.0	-0.0	-0.0	-0.0
0.554	-0.0	-0.0	-0.0	7.55171012878418	-4.572470664978027	-775.2127685546875	-0.0	-0.0	-0.0	-0.0	-0.0	-0.0	-0.0	-0.0	-0.0	-0.0	-0.0	-0.0
0.5545	-0.0	-0.0	-0.0	6.808969497680664	-4.309499740600586	-778.8855590820312	-0.0	-0.0	-0.0	-0.0	-0.0	-0.0	-0.0	-0.0	-0.0	-0.0	-0.0	-0.0
0.555	-0.0	-0.0	-0.0	5.827573776245117	-4.126327037811279	-781.7015380859375	-0.0	-0.0	-0.0	-0.0	-0.0	-0.0	-0.0	-0.0	-0.0	-0.0	-0.0	-0.0
0.5555	-0.0	-0.0	-0.0	5.536503791809082	-3.683148860931397	-783.7278442382812	-0.0	-0.0	-0.0	-0.0	-0.0	-0.0	-0.0	-0.0	-0.0	-0.0	-0.0	-0.0
0.556	-0.0	-0.0	-0.0	5.346921443939209	-3.89012622833252	-787.9556884765625	-0.0	-0.0	-0.0	-0.0	-0.0	-0.0	-0.0	-0.0	-0.0	-0.0	-0.0	-0.0
0.5565	-0.0	-0.0	-0.0	5.827388286590576	-3.326504230499268	-788.285400390625	-0.0	-0.0	-0.0	-0.0	-0.0	-0.0	-0.0	-0.0	-0.0	-0.0	-0.0	-0.0
0.557	-0.0	-0.0	-0.0	7.101734638214111	-3.3583180904388428	-790.7698974609375	-0.0	-0.0	-0.0	-0.0	-0.0	-0.0	-0.0	-0.0	-0.0	-0.0	-0.0	-0.0
0.5575	-0.0	-0.0	-0.0	7.8860321044921875	-3.565216064453125	-791.6031494140625	-0.0	-0.0	-0.0	-0.0	-0.0	-0.0	-0.0	-0.0	-0.0	-0.0	-0.0	-0.0
0.558	-0.0	-0.0	-0.0	8.646120071411133	-2.8843140602111816	-791.4761962890625	-0.0	-0.0	-0.0	-0.0	-0.0	-0.0	-0.0	-0.0	-0.0	-0.0	-0.0	-0.0
0.5585	-0.0	-0.0	-0.0	9.103249549865724	-2.823720693588257	-792.2124633789062	-0.0	-0.0	-0.0	-0.0	-0.0	-0.0	-0.0	-0.0	-0.0	-0.0	-0.0	-0.0
0.559	-0.0	-0.0	-0.0	8.896672248840332	-3.0588057041168213	-790.5450439453125	-0.0	-0.0	-0.0	-0.0	-0.0	-0.0	-0.0	-0.0	-0.0	-0.0	-0.0	-0.0
0.5595	-0.0	-0.0	-0.0	9.37551498413086	-3.20029091835022	-790.2711791992188	-0.0	-0.0	-0.0	-0.0	-0.0	-0.0	-0.0	-0.0	-0.0	-0.0	-0.0	-0.0
0.56	-0.0	-0.0	-0.0	9.29751682281494	-3.367348909378052	-789.0211181640625	-0.0	-0.0	-0.0	-0.0	-0.0	-0.0	-0.0	-0.0	-0.0	-0.0	-0.0	-0.0
0.5605	-0.0	-0.0	-0.0	9.047622680664062	-3.447899103164673	-786.791259765625	-0.0	-0.0	-0.0	-0.0	-0.0	-0.0	-0.0	-0.0	-0.0	-0.0	-0.0	-0.0
0.561	-0.0	-0.0	-0.0	8.118156433105469	-3.29306697845459	-784.5978393554688	-0.0	-0.0	-0.0	-0.0	-0.0	-0.0	-0.0	-0.0	-0.0	-0.0	-0.0	-0.0
0.5615	-0.0	-0.0	-0.0	7.939735412597656	-3.710434675216675	-785.47216796875	-0.0	-0.0	-0.0	-0.0	-0.0	-0.0	-0.0	-0.0	-0.0	-0.0	-0.0	-0.0
0.562	-0.0	-0.0	-0.0	6.948160648345947	-3.674846649169922	-783.8375244140625	-0.0	-0.0	-0.0	-0.0	-0.0	-0.0	-0.0	-0.0	-0.0	-0.0	-0.0	-0.0
0.5625	-0.0	-0.0	-0.0	6.685530185699463	-2.979769229888916	-781.2548217773438	-0.0	-0.0	-0.0	-0.0	-0.0	-0.0	-0.0	-0.0	-0.0	-0.0	-0.0	-0.0
0.5630000000000001	-0.0	-0.0	-0.0	5.859989643096924	-2.796415090560913	-778.9174194335938	-0.0	-0.0	-0.0	-0.0	-0.0	-0.0	-0.0	-0.0	-0.0	-0.0	-0.0	-0.0
0.5635	-0.0	-0.0	-0.0	5.084999084472656	-3.002617359161377	-778.077880859375	-0.0	-0.0	-0.0	-0.0	-0.0	-0.0	-0.0	-0.0	-0.0	-0.0	-0.0	-0.0
0.5640000000000001	-0.0	-0.0	-0.0	4.137296199798584	-2.868330240249634	-778.4315795898438	-0.0	-0.0	-0.0	-0.0	-0.0	-0.0	-0.0	-0.0	-0.0	-0.0	-0.0	-0.0
0.5645	-0.0	-0.0	-0.0	2.6642069816589355	-3.697636842727661	-777.592529296875	-0.0	-0.0	-0.0	-0.0	-0.0	-0.0	-0.0	-0.0	-0.0	-0.0	-0.0	-0.0
